# xmcd
#
# Track frame offsets: 
#        150
#        36679
#        73572
#        117918
#        332550
#
# Disc length: 4440 seconds
#
# Revision: 5
# Processed by: cddbd v1.5.2PL0 Copyright (c) Steve Scherf et al.
# Submitted via: ExactAudioCopy v1.0b3
#
DISCID=46115605
DTITLE=Mondo Grosso - Live on the Next Wave 1 (Limited Edition)
DYEAR=2004
DGENRE=Electronic
TTITLE0=Like No One's Looking
TTITLE1=Dancefloor Combat (Break Da Floor Mix)
TTITLE2=Motormouth (Artifical Funk Remix)
TTITLE3=Data Track
TTITLE4=Data Track
EXTD=
EXTT0=
EXTT1=
EXTT2=
EXTT3=
EXTT4=
PLAYORDER=
